# file generated by UVMapper
# NumVerts/NumTVerts/NumVNormals/NumFacets   20/26/12/12
# NumGroups/NumMaterials/NumRegions   1/1/0
# x/y/color/ppu   512/256/0/50.00000000

v  0.94150108  0.00000000  0.33700997
v  0.57735026  0.57735026  0.57735026
v  0.00000000  0.33700997  0.94150108
v  0.00000000 -0.33700997  0.94150108
v  0.57735026 -0.57735026  0.57735026
v -0.57735026 -0.57735026  0.57735026
v -0.33700997 -0.94150108  0.00000000
v  0.33700997 -0.94150108  0.00000000
v  0.57735026 -0.57735026 -0.57735026
v  0.94150108  0.00000000 -0.33700997
v  0.57735026  0.57735026 -0.57735026
v  0.33700997  0.94150108  0.00000000
v -0.33700997  0.94150108  0.00000000
v -0.57735026  0.57735026  0.57735026
v -0.94150108  0.00000000  0.33700997
v -0.94150108  0.00000000 -0.33700997
v -0.57735026 -0.57735026 -0.57735026
v  0.00000000 -0.33700997 -0.94150108
v  0.00000000  0.33700997 -0.94150108
v -0.57735026  0.57735026 -0.57735026

vt  0.69999999  0.75079513
vt  0.69999999  0.24920493
vt  0.75623381  0.50000000
vt  0.84376627  0.50000000
vt  0.80000001  1.00000000
vt  0.90000004  0.24920493
vt  0.60000002  0.35993344
vt  0.40000001  0.00000000
vt  0.80000001  0.00000000
vt  0.60000002  0.64006650
vt  0.50000000  0.75079513
vt  0.44376624  0.50000000
vt  0.50000000  0.24920493
vt  0.00000000  1.00000000
vt  0.10000000  0.75079513
vt  0.40000001  1.00000000
vt  0.29999998  0.75079513
vt  0.35623375  0.50000000
vt  0.20000000  0.35993344
vt  0.10000000  0.24920493
vt  0.00000000  0.00000000
vt  0.29999998  0.24920493
vt  0.90000004  0.75079513
vt  1.00000000  0.35993344
vt  1.00000000  0.64006650
vt  0.20000000  0.64006650

vn  0.53710592 -0.01233466  0.84342468
vn  0.84581387  0.53347820  0.00000000
vn  0.84342468 -0.53710592 -0.01233466
vn  0.00000000 -0.83460855  0.55084354
vn -0.53347820  0.00000000  0.84581387
vn -0.01233466  0.84342468  0.53710592
vn -0.01233466  0.84342468 -0.53710592
vn -0.84342468  0.53710592  0.01233466
vn -0.84581387 -0.53347820  0.00000000
vn -0.01233466 -0.84342468 -0.53710592
vn  0.55084354  0.00000000 -0.83460855
vn -0.53347820  0.00000000 -0.84581387

g dodecahedron
usemtl default
f 1/3/1 2/1/1 3/10/1 4/7/1 5/2/1
f 2/1/2 1/3/2 10/4/2 11/23/2 12/5/2
f 1/3/3 5/2/3 8/9/3 9/6/3 10/4/3
f 5/2/4 4/7/4 6/13/4 7/8/4 8/9/4
f 4/7/5 3/10/5 14/11/5 15/12/5 6/13/5
f 3/10/6 2/1/6 12/5/6 13/16/6 14/11/6
f 12/14/7 11/15/7 19/26/7 20/17/7 13/16/7
f 13/16/8 20/17/8 16/18/8 15/12/8 14/11/8
f 15/12/9 16/18/9 17/22/9 7/8/9 6/13/9
f 18/19/10 9/20/10 8/21/10 7/8/10 17/22/10
f 11/23/11 10/4/11 9/6/11 18/24/11 19/25/11
f 20/17/12 19/26/12 18/19/12 17/22/12 16/18/12
