# file generated by UVMapper
# NumVerts/NumTVerts/NumVNormals/NumFacets   4/6/4/4
# NumGroups/NumMaterials/NumRegions   1/1/0
# x/y/color/ppu   512/256/0/50.00000000

v  0.57735026  0.57735026  0.57735026
v -0.57735026  0.57735026 -0.57735026
v  0.57735026 -0.57735026 -0.57735026
v -0.57735026 -0.57735026  0.57735026

vt  0.00000000  1.00000000
vt  0.80000001  1.00000000
vt  0.60000002  0.00000000
vt  1.00000000  0.00000000
vt  0.40000001  1.00000000
vt  0.20000000  0.00000000

vn  0.57735026  0.57735026 -0.57735026
vn -0.57735026  0.57735026  0.57735026
vn  0.57735026 -0.57735026  0.57735026
vn -0.57735026 -0.57735026 -0.57735026

g tetrahederon
usemtl default
f 1/1/1 3/6/1 2/5/1
f 1/2/2 2/5/2 4/3/2
f 1/2/3 4/3/3 3/4/3
f 2/5/4 3/6/4 4/3/4
